# xmcd
#
# Track frame offsets:
#  150
#  8683
#  19363
#  28756
#  42586
#  57483
#  69785
#  89422
#  101473
#  116171
#  127575
#  141555
#  154424
#  167859
#  187181
#  202754
#  220021
#
# Disc length: 2974 seconds
#
# Revision: 0
# Processed by: cddbd v1.5.2PL0 Copyright (c) Steve Scherf et al.
# Submitted via: AltoMP3_Maker 3.0
#
DISCID=f10b9c11
DTITLE=The Cornell Hurd Band - Boonville - Live in Mendocino County
DYEAR=1900
DGENRE=
TTITLE0=Texas By Night
TTITLE1=I Don't Care What It Is That You Did When You Lived in Ft. Worth
TTITLE2=Over the Hill and Down the Road
TTITLE3=Is Anybody Going to San Antone?
TTITLE4=It's All Downhill from Here
TTITLE5=I've Had It
TTITLE6=Honky Tonk (parts 1 and 2)
TTITLE7=My Boogie Woogie Country Girl
TTITLE8=Pick Me Up on Your Way Down
TTITLE9=Who Will Buy the Wine
TTITLE10=Pretty Little Lies
TTITLE11=I Don't Hurt Anymore
TTITLE12=(I've Got a Woman in) San Angelo
TTITLE13=Party Time
TTITLE14=Rain on Me
TTITLE15=If You Play with My Mind You're Gonna Get Your Hands Dirty
TTITLE16=Meet The Flintstones
EXTD=
EXTT0=
EXTT1=
EXTT2=
EXTT3=
EXTT4=
EXTT5=
EXTT6=
EXTT7=
EXTT8=
EXTT9=
EXTT10=
EXTT11=
EXTT12=
EXTT13=
EXTT14=
EXTT15=
EXTT16=
PLAYORDER=
